<?xml version="1.0" encoding="UTF-8"?>
<svg width="42px" height="42px" viewBox="0 0 34 34" version="1.1" xmlns="http://www.w3.org/2000/svg" xmlns:xlink="http://www.w3.org/1999/xlink">
    <title>Artboard</title>
    <defs>
        <linearGradient x1="30.8986648%" y1="-11.1576891%" x2="68.4583797%" y2="100%" id="linearGradient-1">
            <stop stop-color="#00FFBD" offset="0%"></stop>
            <stop stop-color="#3E5096" offset="100%"></stop>
        </linearGradient>
    </defs>
    <g id="Artboard" stroke="none" stroke-width="1" fill="none" fill-rule="evenodd">
        <rect id="Rectangle" fill="#08080A" x="0" y="0" width="34" height="34" rx="6"></rect>
        <path d="M8.63704877,10.9050816 L8.74260334,10.7356565 L8.74260334,10.7356565 L8.84042238,10.5810165 C9.50923428,9.5237059 10.3521091,8.58716937 11.333364,7.81105481 C12.3140411,7.03539729 13.4235539,6.43835007 14.6111528,6.04722229 L15.3114542,5.81658271 C16.9437477,5.27899772 18.6755734,5.1131116 20.3802371,5.33105998 C22.0815668,5.54858208 23.705762,6.17156775 25.1161547,7.14759586 L26.4418895,8.0650385 L26.4418895,8.0650385 L24.4875461,11.193011 L23.4169976,10.5543972 C22.5658598,10.0466683 21.6511954,9.65396212 20.6968865,9.38653213 C19.7553056,9.12266894 18.7605138,9.11378705 17.8143716,9.3607959 L16.6707946,9.65934893 C15.4403817,9.98057216 14.3216543,10.633148 13.4363783,11.5460481 C12.5517088,12.4583227 11.9392669,13.599442 11.6680042,14.8409336 L11.5053163,15.5855093 C11.2013852,16.9765144 11.3489925,18.4282003 11.9266831,19.7295622 L12.067474,20.0467214 C12.5609317,21.1583322 13.2815563,22.1543741 14.1830125,22.9708028 C15.0733598,23.7771705 16.1878584,24.2937417 17.3786191,24.4519698 L18.1743605,24.5577077 C19.1612782,24.6888492 20.1651537,24.5899954 21.1075359,24.2688717 C22.05736,23.9452121 22.9534932,23.4814491 23.766255,22.8929429 L24.4875461,22.3706691 L24.4875461,22.3706691 L26.2216346,26.2904226 L25.1826079,26.9739428 C24.0868452,27.6947865 22.8752163,28.2217054 21.6007539,28.5316363 L21.5361513,28.5473468 C20.3064673,28.8463882 19.0311409,28.9089142 17.7781021,28.7315944 L17.4710491,28.6881428 C16.4130144,28.5384183 15.3688092,28.3034378 14.348629,27.9854957 C13.3349565,27.6695816 12.3859708,27.174882 11.5465125,26.5247718 L11.333364,26.3597012 C10.3524062,25.6000081 9.51001813,24.6766077 8.84333793,23.6302094 L8.72403398,23.442954 C8.00526272,22.3147955 7.52637277,21.0507765 7.31716745,19.7295622 C7.10644678,18.398778 7.05222385,17.0479021 7.15560551,15.7045101 L7.18411094,15.3340966 C7.30506423,13.76237 7.80348182,12.2430353 8.63704877,10.9050816 Z" id="Rectangle" fill="url(#linearGradient-1)"></path>
    </g>
</svg>