<?xml version="1.0" encoding="UTF-8"?>
<svg width="152px" height="30px" viewBox="0 0 152 30" version="1.1" xmlns="http://www.w3.org/2000/svg" xmlns:xlink="http://www.w3.org/1999/xlink">
    <title>Artboard</title>
    <defs>
        <path d="M6.20025488,6.20025488 L10.1490612,6.20025488 L14.2412557,17.655055 L18.3340378,6.20025488 L22.2822566,6.20025488 L22.2822566,23.7875163 L18.9338763,23.7875163 C18.8545529,19.8719266 18.8545529,16.9407163 18.9338763,14.9938856 C19.0131996,13.0470549 19.1922654,11.583457 19.4710737,10.6030919 L15.1442164,22.3026876 L13.1450143,22.3026876 L8.92119969,10.6030919 C9.1286707,12.0942453 9.26012436,13.7665056 9.31556066,15.6198729 C9.37099696,17.4732401 9.37099696,20.195788 9.31556066,23.7875163 L6.20025488,23.7875163 L6.20025488,6.20025488 Z" id="path-1"></path>
        <filter x="-892.3%" y="-804.6%" width="1884.6%" height="1731.9%" filterUnits="objectBoundingBox" id="filter-2">
            <feOffset dx="0" dy="2" in="SourceAlpha" result="shadowOffsetOuter1"></feOffset>
            <feGaussianBlur stdDeviation="47.5" in="shadowOffsetOuter1" result="shadowBlurOuter1"></feGaussianBlur>
            <feColorMatrix values="0 0 0 0 0   0 0 0 0 1   0 0 0 0 0.133333333  0 0 0 0.708719747 0" type="matrix" in="shadowBlurOuter1"></feColorMatrix>
        </filter>
    </defs>
    <g id="Artboard" stroke="none" stroke-width="1" fill="none" fill-rule="evenodd">
        <g id="logo">
            <rect id="Rectangle" fill="#000000" x="0" y="0" width="28.4973253" height="29.689682" rx="6"></rect>
            <g id="Rectangle">
                <use fill="black" fill-opacity="1" filter="url(#filter-2)" xlink:href="#path-1"></use>
                <use fill="#00FF22" fill-rule="evenodd" xlink:href="#path-1"></use>
            </g>
            <rect id="Rectangle" fill="#000000" x="130.655289" y="6.20025488" width="3.45783445" height="17.6468793"></rect>
            <path d="M144.163497,6.20025488 C145.097779,6.20025488 146.029652,6.29500017 146.944816,6.48303667 L147.024235,6.49935465 C147.879394,6.67506225 148.688469,7.02731482 149.399711,7.53358206 L149.443849,7.56499999 C150.116446,8.04375974 150.621557,8.7218074 150.887781,9.50329488 C151.158906,10.2991712 151.29724,11.134233 151.29724,11.9750231 L151.29724,12.1133729 C151.29724,12.9621687 151.060559,13.7941502 150.613787,14.5158488 C150.168086,15.2358166 149.519775,15.8081986 148.750123,16.1612419 L147.823446,16.5863138 L152,23.906752 L147.823446,23.906752 L144.518974,17.2540123 L141.982678,17.2540123 L141.982678,23.8471342 L138.524843,23.8471342 L138.524843,6.20025488 L144.163497,6.20025488 Z M144.103048,8.94267531 L141.982678,8.94267531 L141.982678,14.4275162 L144.162406,14.4275162 L145.025676,14.357277 C145.604187,14.310207 146.166323,14.1419556 146.675565,13.8634538 C147.170293,13.5928892 147.537869,13.1375638 147.698026,12.5969057 L147.698026,12.5969057 L147.733612,12.4767748 C147.887418,11.9575577 147.906406,11.4077152 147.788784,10.8791248 L147.788784,10.8791248 L147.743673,10.6763985 C147.656762,10.2858221 147.439935,9.93627694 147.12863,9.68489516 C146.812598,9.42969628 146.440554,9.25307749 146.043033,9.16953466 L146.043033,9.16953466 L145.805695,9.11965587 C145.245786,9.00198582 144.675188,8.94267531 144.103048,8.94267531 L144.103048,8.94267531 Z" id="Combined-Shape" fill="#000000"></path>
            <path d="M106.2931,5.85150646 C107.001781,5.85150646 107.708177,5.93187447 108.398746,6.09107 L109.061355,6.24381987 C110.178093,6.50125914 111.212576,7.03427736 112.070394,7.79422957 L112.46572,8.14445367 L112.46572,8.14445367 L110.76316,10.4459903 L110.274002,10.1205758 C109.589466,9.66518557 108.844243,9.30840641 108.06026,9.06073605 L107.955873,9.02775862 C107.25645,8.8068019 106.504268,8.81837195 105.811972,9.06073605 L105.661682,9.11335086 C105.094513,9.31190947 104.675826,9.79723571 104.562578,10.3873888 C104.451108,10.9682781 104.688385,11.5608561 105.169964,11.9042795 L105.28844,11.9887673 C105.893056,12.4199306 106.535566,12.7953145 107.208059,13.1102973 L108.187712,13.5691471 C108.597726,13.7611896 109.00904,13.9504452 109.421624,14.136901 L110.631229,14.683547 C111.220157,14.9496961 111.742368,15.3437495 112.159888,15.8370527 C112.574239,16.3266111 112.842052,16.9231457 112.932549,17.5580981 L113.055795,18.4228359 C113.201823,19.4474191 112.970168,20.4901386 112.404039,21.356506 C111.829075,22.2363921 111.028251,22.9456235 110.085322,23.4100235 L109.834414,23.5335976 C108.730847,24.0771132 107.492768,24.2871247 106.271699,24.1379301 L105.934333,24.0967095 C104.90274,23.9706658 103.893288,23.7038406 102.934152,23.3036814 C101.977669,22.9046292 101.097241,22.343477 100.33164,21.6449366 L100.176217,21.5031272 L100.176217,21.5031272 L102.206831,19.277664 L103.13959,19.9165474 C103.954849,20.4749503 104.890045,20.8337208 105.869597,20.9638644 L106.266308,21.0165715 C106.973645,21.1105485 107.69181,20.9589524 108.300819,20.5871105 L108.586804,20.4124969 C109.005675,20.156747 109.303055,19.7421985 109.411075,19.2634578 L109.443924,19.1178726 C109.529914,18.7367712 109.436893,18.3372707 109.191402,18.0333523 C108.936227,17.717447 108.607156,17.4692723 108.233276,17.3107665 L107.554203,17.0228742 C106.867726,16.731843 106.184526,16.4331432 105.50473,16.1268307 L105.313829,16.0408117 C104.691267,15.7602887 104.079677,15.4560259 103.480404,15.1286921 C102.887073,14.8046042 102.365611,14.3635819 101.947532,13.8322774 L101.685267,13.4989847 C101.243761,12.9379087 100.98604,12.2543203 100.947241,11.5414189 C100.907735,10.8155317 100.981134,10.0879106 101.164817,9.38453758 L101.200008,9.24977927 C101.388131,8.52940581 101.787504,7.88180203 102.346743,7.39029348 L102.390328,7.35198645 C102.929128,6.87844134 103.547008,6.50333972 104.215737,6.24381987 L104.232439,6.23733809 C104.889536,5.98233272 105.588257,5.85150646 106.2931,5.85150646 Z" id="Rectangle" fill="#000000"></path>
            <path d="M120.60138,5.85150646 C121.310062,5.85150646 122.016457,5.93187447 122.707027,6.09107 L123.369636,6.24381987 C124.486374,6.50125914 125.520857,7.03427736 126.378675,7.79422957 L126.774,8.14445367 L126.774,8.14445367 L125.07144,10.4459903 L124.582282,10.1205758 C123.897746,9.66518557 123.152523,9.30840641 122.368541,9.06073605 L122.264153,9.02775862 C121.56473,8.8068019 120.812549,8.81837195 120.120253,9.06073605 L119.969962,9.11335086 C119.402794,9.31190947 118.984106,9.79723571 118.870858,10.3873888 C118.759388,10.9682781 118.996665,11.5608561 119.478244,11.9042795 L119.59672,11.9887673 C120.201336,12.4199306 120.843846,12.7953145 121.51634,13.1102973 L122.495992,13.5691471 C122.906007,13.7611896 123.31732,13.9504452 123.729905,14.136901 L124.939509,14.683547 C125.528437,14.9496961 126.050648,15.3437495 126.468169,15.8370527 C126.88252,16.3266111 127.150333,16.9231457 127.240829,17.5580981 L127.364075,18.4228359 C127.510104,19.4474191 127.278449,20.4901386 126.712319,21.356506 C126.137356,22.2363921 125.336532,22.9456235 124.393603,23.4100235 L124.142695,23.5335976 C123.039128,24.0771132 121.801049,24.2871247 120.579979,24.1379301 L120.242613,24.0967095 C119.211021,23.9706658 118.201569,23.7038406 117.242432,23.3036814 C116.285949,22.9046292 115.405521,22.343477 114.639921,21.6449366 L114.484498,21.5031272 L114.484498,21.5031272 L116.515112,19.277664 L117.447871,19.9165474 C118.26313,20.4749503 119.198325,20.8337208 120.177878,20.9638644 L120.574588,21.0165715 C121.281926,21.1105485 122.000091,20.9589524 122.6091,20.5871105 L122.895085,20.4124969 C123.313956,20.156747 123.611335,19.7421985 123.719356,19.2634578 L123.752205,19.1178726 C123.838195,18.7367712 123.745174,18.3372707 123.499682,18.0333523 C123.244508,17.717447 122.915436,17.4692723 122.541557,17.3107665 L121.862484,17.0228742 C121.176007,16.731843 120.492806,16.4331432 119.81301,16.1268307 L119.622109,16.0408117 C118.999548,15.7602887 118.387958,15.4560259 117.788685,15.1286921 C117.195354,14.8046042 116.673892,14.3635819 116.255813,13.8322774 L115.993548,13.4989847 C115.552042,12.9379087 115.29432,12.2543203 115.255521,11.5414189 C115.216015,10.8155317 115.289414,10.0879106 115.473097,9.38453758 L115.508289,9.24977927 C115.696411,8.52940581 116.095785,7.88180203 116.655023,7.39029348 L116.698609,7.35198645 C117.237408,6.87844134 117.855288,6.50333972 118.524018,6.24381987 L118.54072,6.23733809 C119.197816,5.98233272 119.896537,5.85150646 120.60138,5.85150646 Z" id="Rectangle" fill="#000000"></path>
            <path d="M34.0297856,6.20025488 L37.6164434,6.20025488 L37.6164434,15.6198729 L37.6164434,16.6490624 C37.6164434,17.3068093 37.712523,17.961029 37.9016394,18.591002 L37.94376,18.7313115 C38.1035077,19.2634535 38.3877933,19.7498548 38.7730502,20.150194 C39.1545281,20.5466063 39.6491405,20.8155091 40.1892535,20.9201322 L40.5997942,20.9996564 C41.0747914,21.0916663 41.5644903,21.0744874 42.0318723,20.9494184 C42.4968708,20.8249872 42.9200368,20.5782388 43.2573544,20.2348389 L43.3405001,20.150194 C43.7310405,19.7526117 43.9980444,19.2504076 44.109229,18.7043018 L44.1643202,18.4337103 C44.3142374,17.6973618 44.3897653,16.9478096 44.3897653,16.1963548 L44.3897653,14.2712114 L44.3897653,14.2712114 L44.3897653,10.2531761 L44.3897653,6.20025488 L47.7880188,6.20025488 L47.7880188,8.45886269 L47.7880188,11.7766379 L47.7880188,13.3841095 C47.7880188,14.4555193 47.7560956,15.5266914 47.6922916,16.5961997 L47.6356884,17.5450073 C47.5866857,18.3664116 47.431738,19.1780395 47.1746948,19.9597267 L47.1346326,20.0815586 C46.9051363,20.779474 46.5505401,21.4297963 46.0881766,22.0007381 L45.9988062,22.1110957 C45.5961267,22.6083378 45.0992234,23.0211718 44.5366084,23.3259094 C43.9720536,23.6316977 43.3624212,23.8456689 42.7305947,23.9597914 L42.2912112,24.0391541 C41.6477708,24.1553743 40.991571,24.1840664 40.3404422,24.124451 L40.2559315,24.1167135 C39.6591502,24.062074 39.0678265,23.9587982 38.4878542,23.8079155 C37.9120359,23.6581135 37.3694689,23.4015135 36.8883593,23.0514551 L36.6575901,22.883546 C36.1177563,22.4907596 35.661183,21.9948095 35.3142936,21.4243979 C34.9660512,20.8517616 34.7084137,20.228738 34.5505061,19.577393 L34.5072765,19.3990774 C34.319913,18.6262311 34.1959581,17.8393783 34.136647,17.0463596 L34.110007,16.6901685 C34.0565447,15.9753508 34.0297856,15.2587865 34.0297856,14.5419723 L34.0297856,13.4663764 L34.0297856,6.20025488 L34.0297856,6.20025488 Z" id="Rectangle" fill="#000000"></path>
            <path d="M54.8743672,6.20025488 C56.2236253,6.20025488 57.5720698,6.26650309 58.9148303,6.39876022 C60.2302495,6.52832434 61.4800722,7.03577257 62.5134967,7.85987703 L62.7395099,8.04011128 C63.9104431,8.97387201 64.7270648,10.279791 65.0539743,11.7413395 L65.2402367,12.5740817 C65.597084,14.1694763 65.6147454,15.8220476 65.2920763,17.4247043 L65.2151944,17.8065668 C64.9451793,19.1476975 64.3185676,20.3912193 63.4013292,21.4062136 L63.2951899,21.5236649 C62.4527533,22.4558853 61.3404891,23.1020832 60.1133927,23.3722103 C58.8593601,23.648267 57.5790884,23.7875163 56.2950304,23.7875163 L52.0789817,23.7875163 L52.0789817,6.20025488 L54.8743672,6.20025488 Z M56.8804498,8.94267531 L55.5368162,8.94267531 L55.5368162,21.1047137 L57.3888639,20.9466073 C58.1482361,20.8817809 58.8891029,20.6772511 59.5741812,20.3433104 C60.2465809,20.01555 60.7930604,19.4764907 61.1299824,18.8086346 L61.1299824,18.8086346 L61.2260254,18.6182555 C61.6326023,17.8123274 61.8828526,16.9366834 61.963545,16.0376207 L61.963545,16.0376207 L61.9959214,15.6768878 C62.0860912,14.6722281 62.003944,13.6595474 61.7530255,12.6825563 L61.7530255,12.6825563 L61.6469829,12.2696629 C61.4682739,11.5738311 61.1039438,10.939597 60.5928917,10.4346768 L60.5928917,10.4346768 L60.5381451,10.3805871 C60.0593299,9.907517 59.4864484,9.5403435 58.8566355,9.30286713 C58.2249936,9.06470112 57.5555013,8.94267531 56.8804498,8.94267531 L56.8804498,8.94267531 Z" id="Combined-Shape" fill="#000000"></path>
            <path d="M71.9250681,6.20025488 C73.2743263,6.20025488 74.6227708,6.26650309 75.9655312,6.39876022 C77.2809504,6.52832434 78.5307731,7.03577257 79.5641976,7.85987703 L79.7902109,8.04011128 C80.9611441,8.97387201 81.7777657,10.279791 82.1046753,11.7413395 L82.2909376,12.5740817 C82.6477849,14.1694763 82.6654463,15.8220476 82.3427772,17.4247043 L82.2658953,17.8065668 C81.9958803,19.1476975 81.3692685,20.3912193 80.4520301,21.4062136 L80.3458908,21.5236649 C79.5034542,22.4558853 78.39119,23.1020832 77.1640936,23.3722103 C75.910061,23.648267 74.6297893,23.7875163 73.3457313,23.7875163 L69.1296827,23.7875163 L69.1296827,6.20025488 L71.9250681,6.20025488 Z M73.9311507,8.94267531 L72.5875171,8.94267531 L72.5875171,21.1047137 L74.4395648,20.9466073 C75.198937,20.8817809 75.9398038,20.6772511 76.6248821,20.3433104 C77.2972818,20.01555 77.8437614,19.4764907 78.1806833,18.8086346 L78.1806833,18.8086346 L78.2767263,18.6182555 C78.6833032,17.8123274 78.9335535,16.9366834 79.0142459,16.0376207 L79.0142459,16.0376207 L79.0466223,15.6768878 C79.1367922,14.6722281 79.054645,13.6595474 78.8037264,12.6825563 L78.8037264,12.6825563 L78.6976839,12.2696629 C78.5189749,11.5738311 78.1546448,10.939597 77.6435926,10.4346768 L77.6435926,10.4346768 L77.588846,10.3805871 C77.1100308,9.907517 76.5371494,9.5403435 75.9073365,9.30286713 C75.2756945,9.06470112 74.6062022,8.94267531 73.9311507,8.94267531 L73.9311507,8.94267531 Z" id="Combined-Shape" fill="#000000"></path>
            <path d="M93.5729952,6.20025488 L99.2942342,23.906752 L95.558046,23.906752 L94.3025456,19.3730897 L88.5920373,19.3730897 L87.3332501,23.906752 L83.8022003,23.906752 L89.3997467,6.20025488 L93.5729952,6.20025488 Z M91.5770838,10.1356646 C91.3103569,10.0641709 91.0361748,10.2224386 90.9646811,10.4891656 L90.9646811,10.4891656 L89.330396,16.5863138 L93.5648699,16.5863138 L91.9305848,10.4891656 C91.8843444,10.316653 91.7495963,10.181905 91.5770838,10.1356646 Z" id="Combined-Shape" fill="#000000"></path>
        </g>
    </g>
</svg>